<svg id="mouse" xmlns="http://www.w3.org/2000/svg" viewBox="0 0 50.17 95.73"><defs><style>.cls-1{fill:none;stroke:#fff;stroke-miterlimit:10;stroke-width:3px;}.cls-2{fill:#fff;}</style></defs><title>souris</title><g id="mouse-2" data-name="mouse"><path class="cls-1" d="M26.3,5.77c14.5,0,14.1,13.5,14.1,13.5l0.2,23.4A17.69,17.69,0,0,1,38.2,52a13.21,13.21,0,0,1-11.8,6.7,13.07,13.07,0,0,1-12.2-7.6,18.14,18.14,0,0,1-2-8.6V18S12.8,5.77,26.3,5.77Z" transform="translate(-1.22 -4.27)"/><circle class="cls-2" cx="25.08" cy="15.8" r="3.81"/></g><polyline class="cls-1" points="1.01 57.58 25.08 79.52 49.16 57.58"/><polyline class="cls-1" points="1.01 71.76 25.08 93.7 49.16 71.76"/></svg>